<svg width="124" height="124" viewBox="0 0 124 124" fill="none" xmlns="http://www.w3.org/2000/svg">
<path d="M62.0001 54.3333C66.2168 54.3333 69.8278 52.8332 72.8331 49.833C75.8384 46.8327 77.3385 43.2217 77.3334 39C77.3283 34.7782 75.8282 31.1697 72.8331 28.1746C69.838 25.1795 66.227 23.6768 62.0001 23.6666C57.7732 23.6564 54.1648 25.1591 51.1748 28.1746C48.1848 31.1902 46.6821 34.7986 46.6668 39C46.6514 43.2013 48.1541 46.8123 51.1748 49.833C54.1954 52.8536 57.8039 54.3537 62.0001 54.3333ZM34.2851 123.333V115.667H58.1668V86.886C51.6092 86.3646 45.5781 83.689 40.0734 78.859C34.5585 74.029 31.1929 68.3812 29.9764 61.9156C21.8702 60.9599 14.9574 57.6351 9.23809 51.9413C3.51875 46.2475 0.661644 39.3782 0.666755 31.3333V16H28.6808V0.666626H95.3194V16H123.333V31.3333C123.333 39.3731 120.476 46.2424 114.762 51.9413C109.048 57.6402 102.135 60.9624 94.0238 61.908C92.8073 68.3786 89.4442 74.029 83.9344 78.859C78.4246 83.689 72.391 86.3646 65.8334 86.886V115.667H89.7228V123.333H34.2851ZM28.6808 53.6893V23.6666H8.33342V31.3333C8.33342 37.1702 10.2808 42.1867 14.1754 46.383C18.0701 50.5792 22.9052 53.0146 28.6808 53.6893ZM95.3194 53.6893C101.1 53.0095 105.938 50.5715 109.832 46.3753C113.727 42.1791 115.672 37.1651 115.667 31.3333V23.6666H95.3194V53.6893Z" fill="#116530"/>
</svg>
