<svg width="566" height="566" viewBox="0 0 566 566" fill="none" xmlns="http://www.w3.org/2000/svg">
<g clip-path="url(#clip0_187_2763)">
<circle cx="283" cy="283" r="274.5" stroke="#48BB78" stroke-width="17"/>
<path fill-rule="evenodd" clip-rule="evenodd" d="M371.301 219.277C373.902 221.878 375.363 225.407 375.363 229.086C375.363 232.765 373.902 236.294 371.301 238.896L267.303 342.894C265.929 344.268 264.297 345.359 262.501 346.103C260.705 346.847 258.78 347.23 256.837 347.23C254.893 347.23 252.968 346.847 251.172 346.103C249.376 345.359 247.745 344.268 246.37 342.894L194.7 291.232C193.375 289.952 192.318 288.421 191.59 286.728C190.863 285.036 190.48 283.215 190.464 281.373C190.448 279.53 190.799 277.703 191.497 275.998C192.195 274.293 193.225 272.744 194.528 271.441C195.831 270.138 197.38 269.108 199.085 268.41C200.79 267.713 202.617 267.362 204.459 267.378C206.302 267.394 208.122 267.776 209.815 268.504C211.508 269.231 213.039 270.288 214.319 271.613L256.832 314.126L351.672 219.277C352.961 217.987 354.491 216.964 356.175 216.266C357.859 215.569 359.664 215.209 361.487 215.209C363.309 215.209 365.114 215.569 366.798 216.266C368.482 216.964 370.012 217.987 371.301 219.277Z" fill="#48BB78"/>
</g>
<defs>
<clipPath id="clip0_187_2763">
<rect width="566" height="566" fill="white"/>
</clipPath>
</defs>
</svg>
