<svg width="152" height="152" viewBox="0 0 152 152" fill="none" xmlns="http://www.w3.org/2000/svg">
<path d="M126.667 86.1331V75.9997C126.667 73.3122 125.599 70.7348 123.699 68.8344C121.799 66.934 119.221 65.8664 116.534 65.8664H15.2002C12.5127 65.8664 9.93525 66.934 8.03488 68.8344C6.13451 70.7348 5.06689 73.3122 5.06689 75.9997V136.8C5.06689 139.487 6.13451 142.065 8.03488 143.965C9.93525 145.865 12.5127 146.933 15.2002 146.933H116.534C119.221 146.933 121.799 145.865 123.699 143.965C125.599 142.065 126.667 139.487 126.667 136.8V126.666M126.667 86.1331H86.1336C80.7585 86.1331 75.6036 88.2683 71.8029 92.069C68.0021 95.8698 65.8669 101.025 65.8669 106.4C65.8669 111.775 68.0021 116.93 71.8029 120.73C75.6036 124.531 80.7585 126.666 86.1336 126.666H126.667M126.667 86.1331C132.042 86.1331 137.197 88.2683 140.998 92.069C144.798 95.8698 146.934 101.025 146.934 106.4C146.934 111.775 144.798 116.93 140.998 120.73C137.197 124.531 132.042 126.666 126.667 126.666M35.4669 65.8664V35.4664C35.4669 27.4038 38.6697 19.6715 44.3708 13.9704C50.072 8.26925 57.8043 5.06641 65.8669 5.06641C73.9295 5.06641 81.6618 8.26925 87.3629 13.9704C93.064 19.6715 96.2669 27.4038 96.2669 35.4664V65.8664M121.6 106.4H131.734M101.334 106.4H111.467M81.0669 106.4H91.2002" stroke="black" stroke-width="6"/>
</svg>
