<svg width="116" height="116" viewBox="0 0 116 116" fill="none" xmlns="http://www.w3.org/2000/svg">
<path d="M19.3334 106.334C16.6751 106.334 14.4002 105.388 12.5087 103.496C10.6173 101.605 9.66997 99.3286 9.66675 96.667V43.5003C9.66675 40.842 10.6141 38.5671 12.5087 36.6757C14.4034 34.7842 16.6783 33.8369 19.3334 33.8337H43.5001V19.3337C43.5001 16.6753 44.4474 14.4004 46.3421 12.509C48.2368 10.6175 50.5116 9.67021 53.1667 9.66699H62.8334C65.4917 9.66699 67.7682 10.6143 69.6629 12.509C71.5576 14.4037 72.5033 16.6785 72.5001 19.3337V33.8337H96.6667C99.3251 33.8337 101.602 34.781 103.496 36.6757C105.391 38.5703 106.337 40.8452 106.333 43.5003V96.667C106.333 99.3253 105.388 101.602 103.496 103.496C101.605 105.391 99.3283 106.337 96.6667 106.334H19.3334ZM29.0001 87.0003H58.0001V84.8253C58.0001 83.4559 57.6166 82.1863 56.8498 81.0167C56.0829 79.847 55.0163 78.9416 53.6501 78.3003C52.039 77.5753 50.4085 77.0324 48.7588 76.6715C47.109 76.3106 45.3561 76.1285 43.5001 76.1253C41.6441 76.1221 39.8912 76.3042 38.2414 76.6715C36.5916 77.0388 34.9612 77.5818 33.3501 78.3003C31.9806 78.9448 30.9125 79.8518 30.1456 81.0215C29.3787 82.1912 28.9969 83.4591 29.0001 84.8253V87.0003ZM67.6667 79.7503H87.0001V72.5003H67.6667V79.7503ZM43.5001 72.5003C45.514 72.5003 47.2266 71.7963 48.6379 70.3882C50.0492 68.98 50.7533 67.2674 50.7501 65.2503C50.7469 63.2332 50.0428 61.5222 48.6379 60.1173C47.233 58.7124 45.5204 58.0068 43.5001 58.0003C41.4797 57.9939 39.7687 58.6995 38.3671 60.1173C36.9654 61.5351 36.2597 63.2461 36.2501 65.2503C36.2404 67.2546 36.9461 68.9672 38.3671 70.3882C39.7881 71.8092 41.4991 72.5132 43.5001 72.5003ZM67.6667 65.2503H87.0001V58.0003H67.6667V65.2503ZM53.1667 43.5003H62.8334V19.3337H53.1667V43.5003Z" fill="#116530"/>
</svg>
